<svg width="46" height="21" viewBox="0 0 46 21" fill="none" xmlns="http://www.w3.org/2000/svg">
<path d="M8.93457 5.2793C9.11686 5.0651 9.21257 4.81901 9.22168 4.54102H9.78223V7.40527H9.20117C9.06901 6.64876 8.70671 6.05404 8.11426 5.62109C7.52637 5.18815 6.88607 4.97168 6.19336 4.97168C3.88737 4.97168 2.74349 6.58268 2.76172 9.80469C2.77539 11.0853 3.0306 12.1494 3.52734 12.9971C4.10156 13.9769 4.93555 14.4668 6.0293 14.4668C6.86328 14.4668 7.56738 14.321 8.1416 14.0293C8.72038 13.7331 9.17383 13.3343 9.50195 12.833L9.85742 13.1611C9.68424 13.5758 9.32422 13.9723 8.77734 14.3506C8.02539 14.8747 7.08203 15.1367 5.94727 15.1367C4.33398 15.1367 3.04883 14.6354 2.0918 13.6328C1.13477 12.6257 0.65625 11.3451 0.65625 9.79102C0.65625 8.23698 1.13249 6.95182 2.08496 5.93555C3.04199 4.91471 4.37044 4.4043 6.07031 4.4043C6.99089 4.4043 7.79297 4.59115 8.47656 4.96484C8.66797 5.06966 8.82064 5.17448 8.93457 5.2793Z" fill="#673AB7"/>
<path d="M12.2965 14.4668H13.3629V4.02832H12.2486V3.48828H15.1744V14.4668H16.3229V15H12.2965V14.4668Z" fill="#F2DD21"/>
<path d="M32.291 8.54004C31.5482 8.54004 30.876 8.88411 30.2744 9.57227V14.4668H31.5186V15H27.3896V14.4668H28.4971V8.54004H27.3828V8.00684H30.2744V8.88184C30.958 8.22103 31.7396 7.89062 32.6191 7.89062C33.2253 7.89062 33.763 8.04557 34.2324 8.35547C34.8385 8.75651 35.1416 9.39453 35.1416 10.2695V14.4668H36.249V15H32.1201V14.4668H33.3643V10.1328C33.3643 9.59961 33.3073 9.2373 33.1934 9.0459C33.084 8.85449 32.9587 8.72233 32.8174 8.64941C32.6807 8.5765 32.5052 8.54004 32.291 8.54004Z" fill="#673AB7"/>
<path d="M45.066 13.8037C44.3505 14.6924 43.332 15.1367 42.0104 15.1367C41.5729 15.1367 41.1171 15.0456 40.6432 14.8633C40.1692 14.6764 39.7659 14.4212 39.4332 14.0977C38.7451 13.4141 38.401 12.5436 38.401 11.4863C38.401 10.4245 38.7473 9.56087 39.44 8.89551C40.1327 8.23014 41.0123 7.89746 42.0787 7.89746C43.6464 7.89746 44.6331 8.55371 45.0387 9.86621C45.1708 10.2855 45.2369 10.7572 45.2369 11.2812H40.2877V11.4863C40.2877 12.8945 40.6865 13.8197 41.484 14.2617C41.7529 14.4121 42.0742 14.4873 42.4479 14.4873C43.2773 14.4873 44.0292 14.1501 44.7037 13.4756L45.066 13.8037ZM43.398 10.7207C43.3889 9.99154 43.2773 9.43555 43.0631 9.05273C42.8489 8.66536 42.498 8.47168 42.0104 8.47168C41.0214 8.47168 40.4586 9.22135 40.3219 10.7207H43.398Z" fill="black"/>
<path d="M18.7204 13.0527C18.2829 12.0701 18.2411 11.1359 18.595 10.2501C18.9489 9.36417 19.5983 8.71084 20.5434 8.29007C21.4926 7.86744 22.4086 7.82381 23.2912 8.15917C24.1761 8.48851 24.8382 9.14653 25.2776 10.1332C25.715 11.1158 25.7649 12.0514 25.4272 12.94C25.0937 13.8268 24.4503 14.4824 23.4969 14.9069C22.5435 15.3314 21.6174 15.3746 20.7186 15.0365C19.8239 14.6965 19.1578 14.0352 18.7204 13.0527ZM23.2474 14.3969C24.0884 14.0225 24.3268 13.2304 23.9628 12.0206C23.8524 11.6607 23.7101 11.2851 23.5359 10.8937C23.1448 10.0152 22.752 9.40193 22.3575 9.05376C21.8783 8.63855 21.3473 8.5607 20.7645 8.8202C19.9235 9.19463 19.6767 9.96801 20.024 11.1403C20.1325 11.4961 20.2748 11.8717 20.4509 12.2672C20.8439 13.1499 21.2404 13.7715 21.6404 14.1322C22.133 14.5663 22.6687 14.6546 23.2474 14.3969Z" fill="#21D63E"/>
</svg>
