<svg width="45" height="12" viewBox="0 0 45 12" fill="none" xmlns="http://www.w3.org/2000/svg">
<path d="M8.27832 1.79102C8.46061 1.57682 8.55632 1.33073 8.56543 1.05274H9.12598V3.91699H8.54492C8.41276 3.16048 8.05046 2.56576 7.45801 2.13281C6.87012 1.69987 6.22982 1.4834 5.53711 1.4834C3.23112 1.4834 2.08724 3.0944 2.10547 6.31641C2.11914 7.59702 2.37435 8.66112 2.87109 9.50882C3.44531 10.4886 4.2793 10.9785 5.37305 10.9785C6.20703 10.9785 6.91113 10.8327 7.48535 10.541C8.06413 10.2448 8.51758 9.84601 8.8457 9.34472L9.20117 9.67282C9.02799 10.0875 8.66797 10.484 8.12109 10.8623C7.36914 11.3864 6.42578 11.6484 5.29102 11.6484C3.67773 11.6484 2.39258 11.1471 1.43555 10.1445C0.47852 9.13742 0 7.85682 0 6.30274C0 4.7487 0.47624 3.46354 1.42871 2.44727C2.38574 1.42643 3.71419 0.916016 5.41406 0.916016C6.33464 0.916016 7.13672 1.10287 7.82031 1.47656C8.01172 1.58138 8.16439 1.6862 8.27832 1.79102Z" fill="#675E76"/>
<path d="M11.6402 10.9785H12.7066V0.54004H11.5923V0H14.5181V10.9785H15.6666V11.5117H11.6402V10.9785Z" fill="#675E76"/>
<path d="M31.6348 5.05176C30.892 5.05176 30.2198 5.39583 29.6182 6.08399V10.9785H30.8624V11.5117H26.7334V10.9785H27.8409V5.05176H26.7266V4.51856H29.6182V5.39356C30.3018 4.73275 31.0834 4.40234 31.9629 4.40234C32.5691 4.40234 33.1068 4.55729 33.5762 4.86719C34.1823 5.26823 34.4854 5.90625 34.4854 6.78122V10.9785H35.5928V11.5117H31.4639V10.9785H32.7081V6.64452C32.7081 6.11133 32.6511 5.74902 32.5372 5.55762C32.4278 5.36621 32.3025 5.23405 32.1612 5.16113C32.0245 5.08822 31.849 5.05176 31.6348 5.05176Z" fill="#675E76"/>
<path d="M44.4098 10.3154C43.6943 11.2041 42.6757 11.6484 41.3541 11.6484C40.9166 11.6484 40.4609 11.5573 39.9869 11.375C39.5129 11.1881 39.1097 10.9329 38.777 10.6094C38.0889 9.92582 37.7448 9.05532 37.7448 7.99802C37.7448 6.93622 38.091 6.07259 38.7837 5.40723C39.4764 4.74186 40.3561 4.40918 41.4225 4.40918C42.9902 4.40918 43.9769 5.06543 44.3825 6.37793C44.5146 6.79722 44.5807 7.26892 44.5807 7.79292H39.6315V7.99802C39.6315 9.40622 40.0303 10.3314 40.8278 10.7734C41.0967 10.9238 41.4179 10.999 41.7916 10.999C42.621 10.999 43.373 10.6618 44.0475 9.98732L44.4098 10.3154ZM42.7417 7.23242C42.7326 6.50326 42.621 5.94727 42.4068 5.56445C42.1926 5.17708 41.8417 4.9834 41.3541 4.9834C40.3651 4.9834 39.8023 5.73307 39.6656 7.23242H42.7417Z" fill="#675E76"/>
<path d="M18.0641 9.56434C17.6266 8.58174 17.5848 7.64754 17.9387 6.76174C18.2926 5.87581 18.942 5.22248 19.8871 4.80171C20.8363 4.37908 21.7523 4.33545 22.6349 4.67081C23.5198 5.00015 24.1819 5.65817 24.6213 6.64484C25.0587 7.62744 25.1086 8.56304 24.7709 9.45164C24.4374 10.3384 23.794 10.994 22.8406 11.4185C21.8872 11.843 20.9611 11.8862 20.0623 11.5481C19.1676 11.2081 18.5015 10.5468 18.0641 9.56434ZM22.5911 10.9085C23.4321 10.5341 23.6705 9.74204 23.3065 8.53224C23.1961 8.17234 23.0538 7.79674 22.8796 7.40534C22.4885 6.52684 22.0957 5.91357 21.7012 5.5654C21.222 5.15019 20.691 5.07234 20.1082 5.33184C19.2672 5.70627 19.0204 6.47965 19.3677 7.65194C19.4762 8.00774 19.6185 8.38334 19.7946 8.77884C20.1876 9.66154 20.5841 10.2831 20.9841 10.6438C21.4767 11.0779 22.0124 11.1662 22.5911 10.9085Z" fill="#675E76"/>
</svg>
