<svg width="47" height="13" viewBox="0 0 47 13" fill="none" xmlns="http://www.w3.org/2000/svg">
<path d="M6.27 12.09C5.23 12.09 4.29 11.86 3.45 11.4C2.62 10.94 1.965 10.305 1.485 9.495C1.015 8.675 0.78 7.76 0.78 6.75C0.78 5.74 1.015 4.83 1.485 4.02C1.965 3.2 2.625 2.56 3.465 2.1C4.305 1.64 5.245 1.41 6.285 1.41C7.065 1.41 7.785 1.54 8.445 1.8C9.105 2.06 9.665 2.44 10.125 2.94L9.42 3.645C8.6 2.815 7.565 2.4 6.315 2.4C5.485 2.4 4.73 2.59 4.05 2.97C3.37 3.35 2.835 3.87 2.445 4.53C2.065 5.19 1.875 5.93 1.875 6.75C1.875 7.57 2.065 8.31 2.445 8.97C2.835 9.63 3.37 10.15 4.05 10.53C4.73 10.91 5.485 11.1 6.315 11.1C7.575 11.1 8.61 10.68 9.42 9.84L10.125 10.545C9.665 11.045 9.1 11.43 8.43 11.7C7.77 11.96 7.05 12.09 6.27 12.09ZM32.7945 4.05C33.7845 4.05 34.5695 4.34 35.1495 4.92C35.7395 5.49 36.0345 6.325 36.0345 7.425V12H34.9695V7.53C34.9695 6.71 34.7645 6.085 34.3545 5.655C33.9445 5.225 33.3595 5.01 32.5995 5.01C31.7495 5.01 31.0745 5.265 30.5745 5.775C30.0845 6.275 29.8395 6.97 29.8395 7.86V12H28.7745V4.11H29.7945V5.565C30.0845 5.085 30.4845 4.715 30.9945 4.455C31.5145 4.185 32.1145 4.05 32.7945 4.05Z" fill="#673AB7"/>
<path d="M15.3112 12.075C14.6012 12.075 14.0512 11.875 13.6612 11.475C13.2812 11.075 13.0912 10.52 13.0912 9.81V0.869999H14.1562V9.72C14.1562 10.19 14.2662 10.55 14.4862 10.8C14.7062 11.04 15.0363 11.16 15.4763 11.16C15.7563 11.16 15.9963 11.115 16.1963 11.025L16.2713 11.91C15.9612 12.02 15.6412 12.075 15.3112 12.075Z" fill="#E7EC11"/>
<path d="M21.7702 12.075C21.0102 12.075 20.3252 11.905 19.7152 11.565C19.1052 11.215 18.6252 10.735 18.2752 10.125C17.9252 9.515 17.7502 8.825 17.7502 8.055C17.7502 7.285 17.9252 6.595 18.2752 5.985C18.6252 5.375 19.1052 4.9 19.7152 4.56C20.3252 4.22 21.0102 4.05 21.7702 4.05C22.5302 4.05 23.2152 4.22 23.8252 4.56C24.4352 4.9 24.9102 5.375 25.2502 5.985C25.6002 6.595 25.7752 7.285 25.7752 8.055C25.7752 8.825 25.6002 9.515 25.2502 10.125C24.9102 10.735 24.4352 11.215 23.8252 11.565C23.2152 11.905 22.5302 12.075 21.7702 12.075ZM21.7702 11.13C22.3302 11.13 22.8302 11.005 23.2702 10.755C23.7202 10.495 24.0702 10.13 24.3202 9.66C24.5702 9.19 24.6952 8.655 24.6952 8.055C24.6952 7.455 24.5702 6.92 24.3202 6.45C24.0702 5.98 23.7202 5.62 23.2702 5.37C22.8302 5.11 22.3302 4.98 21.7702 4.98C21.2102 4.98 20.7052 5.11 20.2552 5.37C19.8152 5.62 19.4652 5.98 19.2052 6.45C18.9552 6.92 18.8302 7.455 18.8302 8.055C18.8302 8.655 18.9552 9.19 19.2052 9.66C19.4652 10.13 19.8152 10.495 20.2552 10.755C20.7052 11.005 21.2102 11.13 21.7702 11.13Z" fill="#21D63E"/>
<path d="M43.1258 11.13C43.6158 11.13 44.0658 11.045 44.4758 10.875C44.8958 10.695 45.2508 10.435 45.5408 10.095L46.1408 10.785C45.7908 11.205 45.3558 11.525 44.8358 11.745C44.3158 11.965 43.7408 12.075 43.1108 12.075C42.3008 12.075 41.5808 11.905 40.9508 11.565C40.3208 11.215 39.8308 10.735 39.4808 10.125C39.1308 9.515 38.9558 8.825 38.9558 8.055C38.9558 7.285 39.1208 6.595 39.4508 5.985C39.7908 5.375 40.2558 4.9 40.8458 4.56C41.4358 4.22 42.1058 4.05 42.8558 4.05C43.5558 4.05 44.1858 4.21 44.7458 4.53C45.3158 4.85 45.7658 5.295 46.0958 5.865C46.4358 6.435 46.6158 7.085 46.6358 7.815L40.1558 9.075C40.3558 9.715 40.7158 10.22 41.2358 10.59C41.7658 10.95 42.3958 11.13 43.1258 11.13ZM42.8558 4.965C42.3058 4.965 41.8108 5.095 41.3708 5.355C40.9408 5.605 40.6008 5.96 40.3508 6.42C40.1108 6.87 39.9908 7.39 39.9908 7.98C39.9908 8.13 39.9958 8.24 40.0058 8.31L45.5708 7.23C45.4508 6.57 45.1458 6.03 44.6558 5.61C44.1658 5.18 43.5658 4.965 42.8558 4.965Z" fill="#1E0054"/>
</svg>
